<?xml version="1.0" standalone="no"?>
<!DOCTYPE svg PUBLIC "-//W3C//DTD SVG 20010904//EN"
 "http://www.w3.org/TR/2001/REC-SVG-20010904/DTD/svg10.dtd">
<svg version="1.0" xmlns="http://www.w3.org/2000/svg"
 width="986.000000pt" height="689.000000pt" viewBox="0 0 986.000000 689.000000"
 preserveAspectRatio="xMidYMid meet">

<g transform="translate(0.000000,689.000000) scale(0.100000,-0.100000)"
fill="#000000" stroke="none">
<path d="M4275 5740 c-79 -16 -155 -52 -204 -96 -27 -25 -52 -53 -55 -62 -3
-9 -27 -26 -52 -36 -88 -36 -104 -106 -58 -262 32 -112 102 -289 125 -318 l17
-21 10 25 c5 14 12 46 14 73 5 41 3 47 -14 47 -35 0 -68 44 -68 93 0 56 25 90
65 90 31 0 65 -33 65 -64 0 -24 20 -35 31 -18 5 8 9 38 9 66 0 44 4 55 23 67
35 22 92 29 221 27 136 -2 219 12 248 41 27 27 19 88 -21 175 -70 148 -190
206 -356 173z"/>
<path d="M2845 5586 c-4 -12 -7 -24 -6 -27 0 -4 -8 -14 -19 -24 -10 -9 -16
-23 -13 -31 3 -8 -1 -14 -8 -14 -8 -1 12 -15 44 -31 34 -17 70 -29 85 -27 21
2 27 -1 27 -15 0 -10 9 -23 20 -28 20 -10 20 -10 1 5 -24 19 -17 20 19 4 18
-8 22 -14 13 -20 -10 -6 -8 -8 5 -8 9 0 17 -4 17 -9 0 -5 10 -13 23 -17 12 -3
34 -15 50 -26 15 -11 27 -17 27 -13 0 3 17 -6 37 -20 21 -14 42 -25 48 -25 5
0 4 4 -3 9 -9 5 -3 8 18 7 24 -1 28 -3 16 -10 -12 -9 -12 -13 6 -28 22 -19 31
-22 63 -18 11 1 17 -2 12 -6 -8 -8 40 -44 60 -44 16 0 79 110 75 129 -2 8 1
10 8 6 9 -6 9 -2 1 13 -9 17 -8 19 8 15 15 -4 18 0 14 21 -3 15 -1 26 6 26 5
0 8 -8 5 -17 -4 -14 -2 -13 7 2 7 11 21 33 33 49 17 25 17 29 3 23 -9 -3 -19
-2 -22 4 -4 5 -3 8 2 7 4 -2 19 6 33 16 14 10 17 16 8 13 -10 -4 -20 -2 -23 4
-7 11 35 29 49 21 5 -3 6 0 2 6 -3 5 0 13 6 16 7 3 3 3 -9 0 -13 -3 -50 -7
-84 -9 -34 -2 -64 -7 -68 -11 -3 -4 15 -4 40 0 36 5 46 4 46 -7 0 -11 -12 -13
-46 -10 -34 3 -42 2 -31 -6 17 -12 1 -15 -25 -5 -13 6 -14 9 -3 16 9 6 5 8
-12 6 -14 -2 -24 -9 -23 -15 2 -9 -4 -10 -20 -4 -35 14 -197 -6 -221 -26 -12
-10 -18 -14 -14 -9 11 12 -11 36 -32 36 -9 0 -25 9 -35 20 -12 13 -25 18 -38
14 -13 -4 -17 -2 -13 5 4 6 0 11 -8 11 -9 0 -16 4 -16 10 0 5 -7 7 -15 4 -8
-3 -25 6 -40 20 -14 14 -25 22 -25 18 0 -4 -5 0 -10 8 -14 23 -47 20 -55 -4z
m19 -21 c-4 -8 -11 -12 -16 -9 -6 4 -5 10 3 15 19 12 19 11 13 -6z m26 -15 c0
-5 -5 -10 -11 -10 -5 0 -7 5 -4 10 3 6 8 10 11 10 2 0 4 -4 4 -10z m84 -54
c-3 -8 -15 -16 -27 -19 -21 -6 -21 -6 2 14 28 23 32 24 25 5z m81 4 c3 -6 -1
-7 -9 -4 -9 3 -16 1 -16 -6 0 -6 -5 -8 -11 -4 -8 4 -7 9 2 15 18 11 26 11 34
-1z m45 -60 c-13 -9 -13 -11 0 -21 13 -9 12 -10 -3 -5 -10 3 -23 6 -28 6 -16
0 -10 18 9 23 30 8 37 7 22 -3z m100 -75 c0 -33 -4 -44 -19 -48 -21 -5 -49 37
-30 47 5 2 4 3 -3 2 -7 -2 -12 -13 -12 -24 2 -26 -4 -27 -30 -7 -11 8 -14 15
-8 15 24 0 11 26 -20 39 -18 8 -27 16 -20 19 7 2 18 -1 25 -6 8 -7 24 -6 47 2
55 19 70 11 70 -39z m277 -7 c-3 -8 -6 -5 -6 6 -1 11 2 17 5 13 3 -3 4 -12 1
-19z m-29 -88 c-7 -10 -14 -18 -15 -16 -6 6 9 36 18 36 5 0 4 -9 -3 -20z m-51
-86 c-3 -3 -12 -4 -19 -1 -8 3 -5 6 6 6 11 1 17 -2 13 -5z"/>
<path d="M2940 5566 c0 -2 7 -7 16 -10 8 -3 12 -2 9 4 -6 10 -25 14 -25 6z"/>
<path d="M4361 5274 c-44 -19 -34 -28 24 -20 29 5 45 12 45 22 0 18 -25 17
-69 -2z"/>
<path d="M4495 5280 c-7 -11 2 -16 43 -25 20 -4 32 -3 32 4 0 6 -1 11 -3 11
-1 0 -17 4 -34 9 -18 5 -35 6 -38 1z"/>
<path d="M2756 5122 c-60 -81 -148 -200 -195 -264 -70 -95 -91 -117 -111 -118
-64 -1 -130 -69 -130 -133 0 -35 23 -80 53 -104 13 -10 31 -39 40 -63 l16 -45
-6 42 c-5 39 -4 41 16 36 12 -3 42 2 67 12 25 9 47 16 49 14 2 -2 28 -98 58
-214 126 -484 150 -575 154 -571 4 4 -195 774 -204 789 -3 4 3 24 12 44 11 23
15 49 12 73 -4 33 2 45 62 126 130 174 318 429 325 442 19 31 -6 7 -40 -40
-21 -29 -110 -149 -197 -266 l-158 -213 -22 23 c-12 13 -32 30 -45 38 l-23 15
122 165 c67 91 154 207 192 258 38 51 68 95 65 97 -2 2 -52 -62 -112 -143z"/>
<path d="M4049 5223 c-13 -16 -12 -17 3 -5 9 8 23 10 29 6 8 -4 9 -3 5 4 -10
17 -21 15 -37 -5z"/>
<path d="M4374 5196 c-8 -22 3 -49 19 -43 6 2 12 14 12 27 0 27 -22 39 -31 16z"/>
<path d="M4517 5196 c-8 -21 22 -44 33 -26 10 17 2 40 -15 40 -7 0 -15 -6 -18
-14z"/>
<path d="M3444 4986 c-58 -27 -92 -67 -127 -147 -47 -108 -94 -329 -116 -556
l-11 -102 26 -26 c15 -15 23 -32 20 -41 -3 -9 -6 -34 -6 -55 0 -22 -4 -38 -9
-34 -5 3 -12 1 -16 -5 -4 -6 13 -10 45 -10 l51 0 -6 -47 c-3 -27 -17 -138 -30
-248 -14 -110 -25 -203 -25 -207 0 -5 50 -8 111 -8 l111 0 -31 35 c-29 33 -31
41 -31 108 1 40 7 155 14 257 11 139 11 187 2 192 -8 6 -8 8 1 8 7 0 16 -7 21
-17 10 -17 139 -56 156 -46 5 4 6 1 1 -7 -6 -10 -4 -12 11 -6 10 4 33 9 49 12
28 3 28 3 5 -5 l-25 -8 28 -11 c15 -7 39 -14 53 -16 47 -9 56 -24 48 -83 -5
-40 -3 -58 8 -71 23 -26 30 -42 19 -42 -5 0 -12 8 -14 18 -3 12 -5 10 -7 -8
-2 -24 -3 -24 -10 5 -7 29 -8 29 -9 -9 l-1 -39 53 7 c28 3 68 6 87 6 24 0 31
3 21 9 -8 5 -20 7 -28 4 -17 -7 -65 5 -59 15 4 7 117 8 191 2 34 -3 30 -4 -25
-10 l-65 -7 61 -1 c33 -1 64 1 67 4 6 6 179 14 295 13 39 0 52 3 52 15 0 8 14
24 30 36 17 12 30 28 30 36 0 9 5 12 12 8 8 -5 9 -2 5 9 -3 10 -2 17 3 17 6 0
10 -6 10 -12 1 -7 8 3 16 22 8 19 20 37 26 41 6 4 8 14 5 22 -4 11 0 13 15 9
17 -4 20 -2 15 11 -4 11 -2 14 9 10 7 -3 14 0 14 6 0 7 -6 14 -12 16 -15 6
-17 100 -4 112 5 5 6 -5 4 -20 -3 -15 -3 -25 0 -22 3 2 12 -1 21 -7 13 -10 14
-10 4 2 -19 21 -16 35 4 19 15 -12 16 -12 11 3 -4 9 -1 18 6 21 12 5 23 45 33
122 2 17 6 49 9 73 4 23 11 42 17 42 7 0 7 4 -1 12 -14 14 -16 98 -2 98 6 0
11 -17 11 -37 l2 -38 6 35 c8 39 3 63 -10 54 -5 -3 -19 -7 -30 -9 -21 -4 -21
-4 -4 15 10 11 22 17 26 14 5 -3 6 2 2 11 -5 13 -7 14 -14 3 -7 -11 -9 -10 -9
1 0 8 -8 24 -17 35 -17 20 -17 20 2 7 11 -8 7 -1 -10 15 -16 16 -33 28 -37 27
-5 -2 -8 4 -8 12 0 9 -12 18 -30 21 -16 4 -28 11 -27 16 2 10 -48 21 -92 20
-13 0 -19 3 -13 7 7 4 -1 12 -19 20 -16 7 -27 17 -24 21 5 8 -33 26 -39 18
-10 -11 -15 -58 -6 -58 5 0 10 7 10 15 0 21 5 19 36 -11 14 -15 19 -24 11 -21
-11 4 -13 0 -10 -14 6 -20 -11 -27 -22 -9 -3 5 -15 15 -26 20 -14 8 -19 7 -19
-3 0 -8 11 -19 25 -25 37 -17 30 -30 -14 -29 -22 1 -37 5 -34 10 2 4 9 5 14 2
5 -3 6 1 3 9 -5 13 -13 10 -43 -15 -24 -19 -44 -27 -54 -23 -9 3 -17 2 -17 -4
0 -6 5 -12 12 -14 7 -3 5 -7 -6 -11 -9 -4 -15 -3 -12 2 3 5 -9 14 -27 21 -58
22 -97 44 -97 56 0 6 -6 17 -14 23 -8 6 -17 32 -21 56 -4 33 -11 45 -23 45
-13 0 -14 -2 -3 -9 11 -7 10 -15 -5 -47 l-19 -39 -5 40 c-4 33 -8 39 -25 37
-11 -2 -28 -12 -38 -23 -9 -10 -24 -16 -32 -13 -8 4 -15 1 -15 -4 0 -6 -8 -10
-18 -9 -12 1 -30 23 -50 62 -67 129 -173 215 -264 215 -24 0 -66 -11 -94 -24z
m466 -256 c-13 -9 -13 -10 0 -10 13 0 13 -2 1 -9 -12 -8 -12 -13 -3 -24 10
-12 9 -16 -8 -20 -17 -4 -20 -2 -15 13 3 10 0 22 -6 26 -9 5 -7 11 6 21 11 7
24 13 29 13 6 0 4 -5 -4 -10z m135 -54 c0 -9 6 -20 14 -25 9 -6 -1 -9 -27 -9
-34 -1 -40 2 -34 16 15 41 47 53 47 18z m-260 -14 c-3 -3 -11 0 -18 7 -9 10
-8 11 6 5 10 -3 15 -9 12 -12z m782 -5 c6 0 9 -7 6 -15 -3 -7 -9 -10 -12 -4
-3 5 -15 14 -26 21 l-20 13 20 -7 c11 -4 25 -8 32 -8z m-845 -19 c-7 -7 -12
-8 -12 -2 0 6 3 14 7 17 3 4 9 5 12 2 2 -3 -1 -11 -7 -17z m253 12 c3 -5 -1
-10 -10 -10 -9 0 -13 5 -10 10 3 6 8 10 10 10 2 0 7 -4 10 -10z m540 0 c3 -6
-1 -7 -9 -4 -18 7 -21 14 -7 14 6 0 13 -4 16 -10z m-825 -43 c0 -2 -15 -16
-32 -33 l-33 -29 29 33 c28 30 36 37 36 29z m475 -7 c3 -5 0 -7 -8 -4 -8 3
-18 1 -22 -5 -3 -6 -11 -11 -18 -11 -6 0 -2 7 9 15 23 17 31 18 39 5z m63 -29
c7 -1 12 -14 12 -31 0 -29 -1 -30 -49 -30 -46 0 -49 1 -49 28 0 38 4 41 41 37
17 -2 38 -4 45 -4z m381 -195 c6 -22 8 -42 6 -45 -3 -2 -5 1 -5 7 0 7 -7 12
-15 12 -11 0 -15 11 -15 42 0 49 13 42 29 -16z m-42 -8 c-3 -8 -6 -5 -6 6 -1
11 2 17 5 13 3 -3 4 -12 1 -19z m93 6 c0 -8 -4 -12 -10 -9 -5 3 -10 10 -10 16
0 5 5 9 10 9 6 0 10 -7 10 -16z m-736 -6 c-3 -4 -11 -5 -19 -1 -8 3 -15 -1
-15 -8 0 -7 -3 -10 -6 -6 -10 10 6 26 26 24 10 -1 17 -5 14 -9z m47 -26 c-6
-11 -8 -21 -6 -24 3 -3 -4 -4 -15 -3 -29 2 -33 10 -13 26 11 9 14 10 9 2 -4
-7 -3 -13 3 -13 5 0 13 9 16 21 4 11 9 18 12 16 2 -3 0 -14 -6 -25z m-79 -6
c6 4 3 -7 -8 -25 -10 -17 -22 -31 -27 -31 -5 0 -5 6 2 13 8 10 7 17 -2 27 -10
12 -9 12 6 1 10 -8 17 -9 17 -3 0 6 -4 14 -10 17 -5 3 -10 12 -10 18 0 7 5 4
11 -6 6 -9 15 -14 21 -11z m-372 4 c8 11 9 8 4 -13 -5 -22 -3 -26 10 -21 13 5
16 0 16 -25 0 -26 -4 -31 -25 -31 -25 0 -30 11 -27 53 1 10 -3 15 -8 12 -12
-7 -12 -3 -4 20 5 13 9 14 15 3 7 -11 11 -10 19 2z m1127 -12 c-3 -8 -6 -5 -6
6 -1 11 2 17 5 13 3 -3 4 -12 1 -19z m-732 -48 c-2 -30 21 -48 53 -42 14 3 17
-44 2 -53 -5 -3 -10 -19 -10 -35 0 -22 -4 -28 -19 -27 -11 1 -22 10 -25 20 -3
12 -9 16 -18 11 -7 -4 -5 2 5 13 18 21 21 40 11 68 -5 13 -8 14 -15 3 -5 -7
-9 -17 -9 -23 0 -5 5 -3 10 5 5 8 10 11 10 5 -1 -5 -7 -19 -15 -29 -11 -15
-18 -17 -27 -8 -8 8 -5 20 15 46 28 37 34 52 16 40 -8 -4 -8 0 0 15 15 28 18
27 16 -9z m705 -32 c0 -23 -3 -29 -9 -19 -8 12 -4 51 5 51 2 0 4 -15 4 -32z
m-775 -8 c3 -5 0 -20 -6 -32 -9 -16 -14 -19 -17 -9 -2 7 2 17 9 22 12 8 12 11
-1 19 -9 6 -10 10 -3 10 6 0 15 -4 18 -10z m765 -52 c0 -9 -5 -20 -11 -24 -8
-4 -9 1 -4 17 5 19 4 21 -4 9 -10 -13 -12 -13 -21 0 -5 8 -10 20 -10 25 0 6 4
4 9 -3 6 -11 10 -10 15 4 6 16 8 16 16 4 6 -8 10 -23 10 -32z m-1163 0 c-3 -7
-5 -2 -5 12 0 14 2 19 5 13 2 -7 2 -19 0 -25z m360 10 c-3 -8 -6 -5 -6 6 -1
11 2 17 5 13 3 -3 4 -12 1 -19z m13 -43 c0 -7 -7 -20 -15 -28 -8 -8 -12 -17
-10 -21 3 -3 1 -3 -5 2 -13 10 -1 54 13 45 6 -4 8 0 4 11 -4 10 -3 15 3 11 6
-3 10 -12 10 -20z m40 5 c0 -5 -5 -10 -11 -10 -5 0 -7 5 -4 10 3 6 8 10 11 10
2 0 4 -4 4 -10z m-31 -74 c-10 -22 -9 -29 7 -48 16 -18 17 -21 2 -15 -11 4
-19 0 -23 -14 -7 -20 -25 -27 -25 -9 0 6 3 10 8 10 4 0 8 11 8 25 2 28 24 88
31 82 2 -3 -2 -16 -8 -31z m-54 -36 c3 -5 -1 -10 -9 -10 -9 0 -16 5 -16 10 0
6 4 10 9 10 6 0 13 -4 16 -10z m-12 -47 c-4 -11 -8 -13 -11 -5 -2 7 -8 10 -13
6 -5 -3 -9 -1 -9 5 0 11 21 20 32 14 4 -2 4 -11 1 -20z m-43 7 c0 -5 -7 -7
-15 -4 -8 4 -15 8 -15 10 0 2 7 4 15 4 8 0 15 -4 15 -10z m725 -110 c-1 -11
-4 -22 -7 -25 -4 -5 -4 34 1 43 4 8 7 -1 6 -18z m-50 -50 c-2 -4 -32 -7 -67
-7 l-63 0 55 6 c76 8 80 9 75 1z m-140 -30 c3 -5 1 -10 -4 -10 -6 0 -11 5 -11
10 0 6 2 10 4 10 3 0 8 -4 11 -10z"/>
<path d="M4591 4374 c0 -11 3 -14 6 -6 3 7 2 16 -1 19 -3 4 -6 -2 -5 -13z"/>
<path d="M4418 4743 c7 -3 16 -2 19 1 4 3 -2 6 -13 5 -11 0 -14 -3 -6 -6z"/>
<path d="M5531 4450 c-37 -16 -58 -30 -50 -33 8 -3 1 -5 -16 -5 -16 1 -49 -9
-72 -21 -23 -13 -48 -24 -55 -25 -7 -2 -30 -10 -50 -20 -21 -9 -42 -16 -48
-16 -6 0 -8 -5 -4 -11 4 -8 -1 -9 -16 -4 -19 6 -22 4 -16 -10 6 -16 4 -16 -11
-4 -15 12 -16 12 -10 -4 4 -11 1 -24 -8 -33 -8 -9 -15 -25 -14 -37 0 -21 1
-21 9 -2 l9 20 0 -20 c1 -21 -18 -58 -20 -40 -2 21 -29 -102 -34 -154 -3 -29
-10 -60 -16 -67 -6 -8 -9 -23 -6 -34 3 -11 1 -18 -3 -15 -11 7 -33 -101 -25
-122 3 -9 1 -20 -6 -23 -12 -8 -42 -138 -35 -156 2 -6 1 -15 -4 -20 -11 -13
-30 -75 -35 -120 -4 -34 -3 -37 9 -22 7 10 15 15 18 13 3 -3 32 8 66 25 33 16
66 30 71 30 6 0 11 4 11 9 0 5 18 12 40 16 22 4 44 14 48 22 5 8 12 14 15 14
19 -3 20 1 2 10 -14 6 -9 7 21 3 30 -4 44 -1 53 10 7 9 17 14 21 11 4 -3 10 1
13 9 3 8 14 13 24 12 10 -2 13 -1 6 1 -9 3 -9 11 -3 29 11 28 14 81 4 71 -15
-15 -40 26 -40 66 l1 42 39 -1 c30 -1 35 1 22 8 -10 6 -29 8 -42 5 -19 -3 -24
0 -24 15 0 11 -4 16 -10 13 -5 -3 -10 -2 -10 3 0 6 7 12 15 16 8 3 15 10 15
16 0 6 -4 8 -10 5 -5 -3 -15 -3 -21 1 -8 4 -7 9 2 15 10 6 11 9 2 9 -7 0 -13
8 -13 18 0 13 2 14 9 4 7 -11 9 -11 14 2 7 18 91 23 102 6 3 -5 18 -9 33 -9
24 2 24 2 5 6 -13 2 -23 8 -23 13 0 4 9 6 20 3 15 -4 20 0 20 13 0 16 -2 17
-10 4 -6 -9 -10 -10 -10 -3 0 7 6 16 13 20 8 4 19 29 25 55 13 52 15 84 3 54
-5 -13 -7 -1 -7 31 1 44 3 49 12 31 10 -19 13 -12 24 53 6 41 21 103 31 138
31 105 30 105 -70 61z m64 -8 c-3 -3 -11 0 -18 7 -9 10 -8 11 6 5 10 -3 15 -9
12 -12z m-120 -52 c-3 -5 -12 -10 -18 -10 -7 0 -6 4 3 10 19 12 23 12 15 0z
m-140 -70 c-3 -5 -12 -10 -18 -10 -7 0 -6 4 3 10 19 12 23 12 15 0z m212 -32
c-3 -8 -6 -5 -6 6 -1 11 2 17 5 13 3 -3 4 -12 1 -19z m-317 -33 c0 -2 -6 -5
-13 -8 -8 -3 -14 1 -14 8 0 7 6 11 14 8 7 -3 13 -6 13 -8z m324 -21 c3 -8 2
-12 -4 -9 -6 3 -10 10 -10 16 0 14 7 11 14 -7z m-407 -206 c-3 -8 -6 -5 -6 6
-1 11 2 17 5 13 3 -3 4 -12 1 -19z m-10 -95 c-3 -10 -5 -2 -5 17 0 19 2 27 5
18 2 -10 2 -26 0 -35z m234 -286 c-10 -9 -11 -8 -5 6 3 10 9 15 12 12 3 -3 0
-11 -7 -18z m-134 -83 c-3 -3 -12 -4 -19 -1 -8 3 -5 6 6 6 11 1 17 -2 13 -5z"/>
<path d="M2435 4359 c7 -45 33 -129 34 -109 0 8 -8 44 -19 80 -11 36 -18 49
-15 29z"/>
<path d="M7616 4149 c-4 -84 -3 -136 4 -144 7 -8 4 -17 -11 -31 -25 -23 -35
-11 -44 58 -7 47 -20 63 -103 129 -24 20 -41 2 -40 -41 0 -37 5 -45 33 -62 19
-10 38 -31 43 -46 6 -15 13 -35 17 -44 10 -26 -27 -24 -76 4 -37 21 -40 21
-57 5 -22 -23 -11 -30 83 -54 66 -16 68 -18 35 -23 l-35 -5 -3 -192 -2 -193
150 0 150 0 0 195 0 195 -27 0 -28 0 33 20 c17 11 32 28 32 38 0 22 36 57 68
67 40 12 23 25 -31 25 -51 0 -55 -2 -78 -37 -48 -73 -63 -42 -34 70 19 75 19
89 -4 118 -10 14 -21 36 -23 49 -2 16 -10 26 -24 28 -20 3 -21 -3 -28 -129z"/>
<path d="M2980 4236 c-11 -11 -12 -103 -2 -181 6 -42 11 -51 30 -53 25 -4 28
3 35 68 3 25 3 37 0 28 -2 -10 -11 -18 -19 -18 -11 0 -10 5 6 22 15 17 20 35
20 80 0 32 -3 58 -7 59 -5 0 -18 2 -30 3 -12 1 -27 -2 -33 -8z m24 -140 c-5
-14 -9 -15 -15 -5 -5 8 -3 17 4 21 15 9 19 4 11 -16z"/>
<path d="M3101 4236 c-11 -13 -40 -166 -41 -213 0 -18 6 -23 25 -23 29 0 33 7
45 76 7 47 8 47 9 12 2 -71 21 -39 21 35 0 96 -28 150 -59 113z"/>
<path d="M2470 4226 c0 -18 74 -286 77 -282 3 2 -12 66 -32 142 -32 124 -45
163 -45 140z"/>
<path d="M4587 4085 c-4 -10 -3 -23 3 -29 12 -12 15 -8 24 24 5 17 4 21 -2 11
-8 -11 -10 -11 -14 0 -3 9 -7 7 -11 -6z"/>
<path d="M2551 3914 c0 -11 3 -14 6 -6 3 7 2 16 -1 19 -3 4 -6 -2 -5 -13z"/>
<path d="M6410 3890 c0 -6 103 -10 290 -10 l291 0 24 -25 c16 -15 25 -36 25
-55 0 -19 -9 -40 -25 -55 l-24 -25 -293 -2 c-161 -1 -275 -3 -253 -5 22 -3 45
-9 51 -14 7 -6 129 -10 290 -10 340 0 312 2 320 -22 5 -15 8 -17 15 -6 5 8 3
16 -4 21 -8 5 0 17 25 38 61 51 60 121 -4 160 -31 19 -51 20 -380 20 -226 0
-348 -4 -348 -10z"/>
<path d="M2567 3855 c3 -22 12 -56 19 -75 l14 -35 -6 35 c-4 19 -13 53 -20 75
l-13 40 6 -40z"/>
<path d="M2603 3720 c2 -22 -3 -25 -40 -30 -58 -8 -116 -50 -142 -102 -40 -83
-60 -78 289 -78 352 0 319 -10 299 94 -17 82 -30 87 -229 87 l-159 0 -10 27
c-10 27 -10 27 -8 2z"/>
<path d="M5430 3719 c0 -5 5 -7 10 -4 6 3 10 8 10 11 0 2 -4 4 -10 4 -5 0 -10
-5 -10 -11z"/>
<path d="M5436 3695 c-9 -9 -16 -24 -15 -33 0 -14 2 -13 9 3 l9 20 1 -20 c1
-15 4 -12 11 9 10 37 6 42 -15 21z"/>
<path d="M7134 3638 c-1 -29 1 -43 3 -30 2 12 8 22 13 22 6 0 5 -11 0 -26 -6
-14 -8 -30 -5 -35 4 -5 -1 -6 -9 -3 -9 3 -19 -3 -26 -18 -11 -22 -10 -22 4 -4
17 21 22 11 7 -13 -5 -8 -16 -11 -26 -8 -9 4 -14 3 -10 -3 11 -18 55 -12 56 8
0 10 3 12 6 5 3 -8 15 -11 31 -7 21 4 24 3 12 -5 -24 -17 -1 -13 31 6 33 20
41 35 27 54 -8 11 -9 10 -4 -4 3 -10 2 -16 -3 -13 -12 8 -11 78 1 93 11 13 6
16 -43 27 -19 4 -26 1 -26 -10 0 -10 8 -14 26 -11 14 2 20 2 14 0 -15 -5 -17
-23 -4 -23 6 0 9 -9 8 -19 -1 -16 -5 -18 -19 -10 -10 6 -16 14 -13 20 4 5 2 9
-3 9 -5 0 -14 11 -20 25 -18 39 -27 30 -28 -27z m86 -58 c0 -5 -8 -10 -17 -10
-15 0 -16 2 -3 10 19 12 20 12 20 0z"/>
<path d="M7245 3638 c-4 -9 -1 -27 7 -40 l13 -23 3 22 c2 12 -1 30 -7 40 -9
17 -10 17 -16 1z"/>
<path d="M4485 3634 c-11 -3 -47 -9 -80 -15 -101 -18 -105 -19 -105 -33 0 -9
-11 -14 -32 -13 -18 0 -50 -3 -71 -7 -27 -5 -37 -4 -32 3 3 6 24 11 46 11 21
0 39 4 39 9 0 6 -8 8 -17 7 -10 -2 -42 -7 -70 -11 -29 -4 -53 -10 -53 -14 0
-4 -15 -6 -32 -5 -22 2 -16 -1 17 -10 80 -21 81 -22 19 -23 -35 0 -51 3 -39 7
14 5 1 9 -40 14 -43 4 -91 0 -165 -14 -58 -11 -127 -21 -155 -21 -27 -1 -63
-5 -80 -9 -20 -5 0 -7 55 -6 47 1 90 3 95 6 6 3 186 3 400 0 215 -3 406 -2
425 1 l35 6 -28 11 c-16 7 -32 10 -37 7 -15 -9 -71 8 -80 25 -6 11 -6 30 0 49
5 17 8 30 7 30 -1 -1 -11 -3 -22 -5z m-242 -81 c-7 -2 -21 -2 -30 0 -10 3 -4
5 12 5 17 0 24 -2 18 -5z m-253 -7 c0 -2 -9 -6 -20 -9 -11 -3 -20 -1 -20 4 0
5 9 9 20 9 11 0 20 -2 20 -4z"/>
<path d="M4518 3553 c7 -3 16 -2 19 1 4 3 -2 6 -13 5 -11 0 -14 -3 -6 -6z"/>
<path d="M6682 3513 c70 -2 187 -2 260 0 73 1 16 3 -127 3 -143 0 -203 -2
-133 -3z"/>
<path d="M2891 3351 l-34 -6 -23 -100 c-13 -55 -53 -230 -89 -390 -35 -159
-90 -400 -120 -535 -52 -229 -130 -575 -194 -857 l-28 -123 66 0 66 0 85 308
c168 613 325 1183 430 1562 20 74 35 138 33 143 -5 8 -142 7 -192 -2z"/>
<path d="M3458 3352 l-298 -2 0 -58 c2 -146 20 -373 36 -432 54 -207 204 -349
429 -408 95 -25 268 -49 418 -58 l107 -7 -2 -275 -3 -274 -130 -70 c-71 -38
-169 -90 -216 -115 -114 -61 -140 -104 -104 -173 32 -62 18 -60 486 -60 l427
0 30 25 c17 14 33 39 37 55 8 35 0 35 190 15 192 -20 190 -20 204 13 23 48
248 644 283 744 18 54 35 98 38 98 3 0 27 -115 53 -257 26 -141 48 -257 50
-259 7 -7 432 -22 438 -16 8 8 -30 434 -61 702 -47 399 -85 582 -132 636 -71
81 -359 168 -585 176 -95 4 -122 -4 -57 -17 20 -3 34 -9 31 -11 -3 -3 -22 0
-44 7 -40 14 -1019 27 -1625 21z m1770 -64 c119 -59 229 -196 248 -308 3 -21
-5 -7 -19 32 -46 132 -122 213 -258 278 -35 16 -58 30 -51 30 8 0 43 -15 80
-32z m-1561 -330 c-3 -8 -6 -5 -6 6 -1 11 2 17 5 13 3 -3 4 -12 1 -19z m-152
-18 c-3 -5 -12 -10 -18 -10 -7 0 -6 4 3 10 19 12 23 12 15 0z m1972 -177 c-2
-32 -3 -6 -3 57 0 63 1 89 3 58 2 -32 2 -84 0 -115z m-1797 122 c0 6 3 6 8 -1
4 -5 17 -17 30 -26 19 -13 20 -16 7 -22 -9 -3 -13 -2 -10 3 5 9 -32 27 -47 23
-5 -1 -8 8 -8 21 0 18 2 19 10 7 5 -8 10 -10 10 -5z m-186 -40 c11 -8 15 -15
9 -15 -7 0 -14 4 -17 9 -3 5 -16 7 -29 4 -18 -4 -19 -3 -7 6 19 14 21 13 44
-4z m289 -12 c-7 -2 -13 -13 -13 -24 0 -10 -4 -19 -10 -19 -5 0 -10 7 -10 15
0 8 -6 15 -12 16 -7 1 -2 5 12 9 28 9 52 11 33 3z m75 -10 c-10 -2 -28 -2 -40
0 -13 2 -5 4 17 4 22 1 32 -1 23 -4z m-261 -9 c-3 -3 -12 -4 -19 -1 -8 3 -5 6
6 6 11 1 17 -2 13 -5z m336 -1 c-7 -2 -19 -2 -25 0 -7 3 -2 5 12 5 14 0 19 -2
13 -5z m391 -24 c11 -10 -1 -14 -59 -24 -49 -8 -43 1 11 15 39 10 39 10 4 6
-19 -2 -61 0 -92 3 -32 4 -58 3 -58 -1 0 -4 -18 -8 -40 -8 -22 0 -40 4 -40 10
0 11 -28 9 -49 -5 -10 -5 -16 -4 -19 3 -2 7 -8 10 -13 6 -5 -3 -9 0 -9 7 0 14
349 3 364 -12z m-596 -6 c-10 -2 -26 -2 -35 0 -10 3 -2 5 17 5 19 0 27 -2 18
-5z m850 2 c-2 -3 -54 -7 -114 -9 -64 -3 -97 -1 -79 4 33 8 201 13 193 5z
m-771 -11 c-3 -3 -12 -4 -19 -1 -8 3 -5 6 6 6 11 1 17 -2 13 -5z m826 -1 c-7
-2 -21 -2 -30 0 -10 3 -4 5 12 5 17 0 24 -2 18 -5z m-476 -9 c-3 -3 -12 -4
-19 -1 -8 3 -5 6 6 6 11 1 17 -2 13 -5z m541 -1 c-10 -2 -26 -2 -35 0 -10 3
-2 5 17 5 19 0 27 -2 18 -5z m-238 -22 c-7 -14 -7 -22 2 -27 6 -4 14 -2 16 4
2 7 8 9 14 6 6 -4 6 1 -1 14 -10 19 -9 20 26 16 45 -6 57 -14 20 -14 -15 0
-27 -4 -27 -10 0 -5 3 -9 8 -9 16 3 65 -1 61 -5 -2 -2 -28 -7 -58 -10 -29 -4
-58 -9 -64 -13 -6 -3 -7 -1 -3 6 6 9 0 10 -21 5 -27 -6 -27 -6 -8 9 30 23 8
42 -31 26 -44 -17 -111 -21 -120 -7 -5 8 -2 9 9 5 10 -3 17 -2 17 4 0 6 3 8 8
6 4 -2 30 -1 57 3 28 4 63 8 78 9 24 1 26 -1 17 -18z m288 7 c-2 -6 -10 -13
-16 -14 -9 -2 -9 -1 -1 3 8 4 7 8 -2 14 -11 7 -10 9 4 9 10 0 17 -5 15 -12z
m73 -3 c40 -7 51 -15 21 -15 -24 0 -28 -10 -10 -28 7 -7 17 -8 28 -2 14 7 17
5 16 -13 -1 -21 -6 -22 -84 -25 -65 -2 -83 0 -80 10 3 7 15 14 27 16 15 2 21
9 17 18 -7 17 -5 17 30 -1 34 -17 39 -14 24 14 -6 12 -20 21 -31 21 -11 0 -17
5 -14 10 4 6 10 8 14 6 4 -3 23 -8 42 -11z m-828 -2 c-13 -2 -33 -2 -45 0 -13
2 -3 4 22 4 25 0 35 -2 23 -4z m146 -14 c-15 -6 -41 -6 -65 -1 -37 9 -35 9 26
10 51 0 60 -2 39 -9z m54 -16 c-7 -2 -19 -2 -25 0 -7 3 -2 5 12 5 14 0 19 -2
13 -5z m82 -3 c3 -5 1 -10 -4 -10 -6 0 -11 5 -11 10 0 6 2 10 4 10 3 0 8 -4
11 -10z m118 -14 c3 -8 -5 -11 -27 -9 -58 7 -80 14 -68 21 17 11 90 2 95 -12z
m107 -16 c12 -8 9 -10 -13 -10 -16 0 -26 4 -22 10 8 12 16 12 35 0z m184 -5
c4 -11 -2 -15 -22 -14 -21 1 -23 2 -7 7 l20 5 -20 8 c-19 7 -19 8 1 8 12 1 24
-6 28 -14z m771 -78 c-19 -78 -65 -210 -71 -204 -3 2 7 33 20 68 13 35 32 101
42 147 11 45 20 78 22 72 2 -6 -4 -43 -13 -83z m-656 -233 c4 -3 -54 -166
-136 -384 -101 -268 -114 -300 -125 -300 -6 0 -70 37 -142 81 l-131 82 2 136
c1 75 2 196 2 269 l1 133 263 -7 c144 -4 264 -8 266 -10z"/>
<path d="M6666 3350 c-3 -5 16 -73 174 -645 135 -489 240 -870 307 -1117 l68
-248 67 0 66 0 -15 63 c-8 34 -45 199 -83 367 -38 168 -127 564 -199 880 -71
316 -135 601 -142 634 -7 32 -17 60 -23 62 -18 5 -218 9 -220 4z"/>
<path d="M5637 1543 c-3 -16 -9 -56 -12 -90 -7 -59 -6 -63 21 -91 l29 -29 259
-6 c143 -4 310 -7 373 -7 l113 0 0 40 c0 49 -24 76 -96 113 -129 65 -299 97
-520 97 l-161 0 -6 -27z"/>
<path d="M4651 1389 c-54 -76 -62 -116 -30 -151 21 -23 637 -358 658 -358 12
0 31 48 31 79 0 61 -98 176 -243 288 -45 35 -351 203 -369 203 -2 0 -23 -27
-47 -61z"/>
</g>
</svg>
